<svg xmlns="http://www.w3.org/2000/svg" viewBox="0 0 96 96"><defs><linearGradient id="a" x1="14" y1="8" x2="82" y2="88"><stop stop-color="#d9ffef"/><stop offset=".18" stop-color="#5ff2ad"/><stop offset=".5" stop-color="#16c978"/><stop offset=".8" stop-color="#087a49"/><stop offset="1" stop-color="#034b2d"/></linearGradient><linearGradient id="b" x1="48" y1="10" x2="48" y2="72"><stop stop-color="#fff" stop-opacity=".9"/><stop offset=".5" stop-color="#fff" stop-opacity=".18"/><stop offset="1" stop-color="#fff" stop-opacity="0"/></linearGradient><filter id="g" x="-40%" y="-40%" width="180%" height="180%"><feGaussianBlur stdDeviation="3.4" result="b"/><feFlood flood-color="#22e68c" flood-opacity=".7"/><feComposite in2="b" operator="in"/><feMerge><feMergeNode/><feMergeNode in="SourceGraphic"/></feMerge></filter></defs><g filter="url(#g)"><path fill="#20df88" fill-opacity=".15" stroke="#68f6ba" stroke-opacity=".55" stroke-width="1.2" d="M48 3l12.7 28.2L91 34.6 68.3 55.1l6.4 29.9L48 69.7 21.3 85l6.4-29.9L5 34.6l30.3-3.4z"/><path fill="url(#a)" stroke="#e5fff3" stroke-width="2" stroke-linejoin="round" d="M48 8l10.8 24.1 26 2.9-19.5 17.6 5.5 25.7L48 65.2 25.2 78.3l5.5-25.7L11.2 35l26-2.9z"/><path fill="#06643b" fill-opacity=".58" d="M48 15v46L30 71.4l4.3-20.1-15-13.6 20.1-2.2z"/><path fill="url(#b)" d="M48 12l8.5 22.9 22.2 2.1-17.1 14.6L67 72 48 61.3z"/><path fill="none" stroke="#b7ffda" stroke-width="1.3" stroke-linecap="round" d="M48 16l7.2 20 21.2 1.6M61.8 51l3.8 17.2M31.1 51.1l-3.5 16.8"/><circle cx="48" cy="47" r="5.6" fill="#effff7"/><circle cx="48" cy="47" r="2.7" fill="#16c978"/></g></svg>